<?xml version="1.0" encoding="UTF-8"?>
<svg width="200px" height="200px" version="1.0" viewBox="0 0 1024 1024" xmlns="http://www.w3.org/2000/svg">
	<title>Sockie</title>
	<g transform="matrix(.099816 0 0 -.099816 .92968 1023.1)">
		<path transform="matrix(7.5139 0 0 -7.5139 -9.314 10249)" d="m645.62 142.87c-8.817 0.0332-14.939 0.13254-16.203 0.26562-2.5287 0.26618-10.647 1.1978-17.967 1.8633-104.07 10.913-206.55 54.965-290.13 124.97-15.438 12.776-50.573 47.911-63.35 63.35-69.205 82.647-109.66 175.41-124.57 285.21-3.3272 24.355-3.3272 106.6 0 130.96 14.906 109.8 55.363 202.56 124.57 285.21 12.776 15.438 47.911 50.573 63.35 63.35 82.647 69.205 175.41 109.66 285.21 124.57 24.355 3.3272 106.6 3.3272 130.96 0 109.8-14.906 202.56-55.363 285.21-124.57 15.438-12.776 50.573-47.912 63.35-63.35 69.205-82.647 109.66-175.41 124.57-285.21 3.3272-24.355 3.3272-106.6 0-130.96-14.906-109.8-55.363-202.56-124.57-285.21-12.776-15.438-47.912-50.573-63.35-63.35-82.381-68.939-176.08-109.93-284.41-124.44-11.712-1.597-28.747-2.2612-60.289-2.5273-12.044-0.13308-23.556-0.16609-32.373-0.13281zm-9.5488 47.379v10.379c0 15.571 1.0653 49.377 2.5293 81.451 0.79853 15.704 1.7296 38.197 2.1289 49.908 1.464 41.523 5.8541 150.52 6.5195 160.24l0.66797 9.7148-5.9902-0.66407c-3.3272-0.26616-6.3876-1.0656-6.9199-1.4648-0.39926-0.53236-1.3309-9.7141-1.8633-20.494-2.3956-47.379-10.248-231.17-11.047-258.06l-0.79883-29.545 3.7266-0.53321c1.9963-0.26617 5.3237-0.66574 7.4531-0.79882zm115.46 5.0039c1.1042 0.0358 2.6187 0.23658 4.7148 0.58594 3.8595 0.79852 7.0525 1.4626 7.1856 1.5957 0.13308 0.13309 0.53433 40.327 0.93359 89.303 0.53236 49.109 1.1964 93.16 1.5957 97.951 0.39927 4.9242 0.26505 9.183-0.40039 9.4492-0.53234 0.39926-3.8584 0.39926-7.1855 0l-6.1211-0.53125-0.93164-38.729c-0.53235-21.427-1.1987-45.117-1.4648-52.836-1.0647-23.556-1.9958-103.54-1.1973-105.54 0.33272-0.91498 1.0308-1.3098 2.8711-1.25zm-298.13 45.701c0.18284-0.0113 0.35463-9e-3 0.51758 4e-3 0.78214 0.064 1.3381 0.41174 1.6875 1.0605 0.79852 1.1978 7.0544 74.53 14.773 170.49 2.5286 32.606 5.0578 62.418 5.457 66.145 0.66543 6.7875 0.53028 7.0531-3.7285 9.7148-2.3956 1.464-4.7899 2.6621-5.3223 2.6621-0.39927 0-1.1964-3.46-1.5957-7.7188-1.8632-17.301-9.0521-100.88-14.109-161.3-2.9279-35.534-5.589-67.342-5.9883-70.803-0.66544-5.8558-0.53254-6.3907 2.9277-8.2539 2.329-1.2373 4.101-1.917 5.3809-1.9961zm363.21 26.25c1.2789 0.0104 3.0186 0.76788 5.3808 1.5664 3.7264 1.3309 4.1234 1.996 4.9219 9.582 1.3309 13.309 0.9327 76.924-0.53125 76.924-3.8595 0-11.844-4.5241-12.51-7.0527-0.39926-1.597-0.79687-20.497-0.79687-41.924 0-32.44-0.3015-39.127 3.5352-39.096zm-243.29 1.668c2.8531-4e-3 2.8535 0.68107 2.8535 6.1543 0 3.5934 0.9314 23.422 1.9961 44.316s2.2626 47.379 2.7949 58.824c0.93161 23.157 1.1962 22.36-7.7207 22.893-4.3919 0.13309-4.3901 0.13289-4.6562-6.5215-0.26618-3.7264-0.9339-15.306-1.7324-25.953-0.66545-10.647-2.2595-33.671-3.3242-51.238s-2.3976-35-2.7969-38.727c-0.79852-6.6544-0.66367-6.923 2.9297-8.2539 2.1294-0.79852 5.8544-1.4629 8.25-1.4629 0.53235-0.0167 0.99866-0.0309 1.4062-0.0312zm367.2 22.656c0.74862 0.0332 2.1116 0.59923 4.8398 1.7305l4.5254 1.8633 0.93164 17.834c0.39926 9.7154 0.66461 30.743 0.39844 46.58l-0.39844 29.014-5.5918-2.7969-5.5879-2.6602-0.40039-44.184c-0.26617-24.355-0.13141-44.984 0.13477-45.916 0.26616-0.99815 0.39982-1.4981 1.1484-1.4648zm-252.55 16.768 6.7871 0.80078c3.8595 0.53235 7.1867 1.1964 7.5859 1.5957 0.79852 0.79853 2.6618 65.346 2.7949 98.086l0.13477 19.697-6.2578-0.93164c-3.5934-0.39927-6.5192-0.79855-6.6523-0.93164-0.39926-0.26617-4.3926-98.885-4.3926-108.47zm311.16 3.9941 3.8614 2.7949c2.2625 1.597 4.7907 3.8589 5.8555 5.0566 1.597 1.8632 1.8624 31.01 2.2617 191.78 0.3992 184.59 0.3994 189.38-1.9961 189.38-1.4639 0-3.4604-0.80081-4.6582-1.7324-1.9963-1.464-2.2623-17.567-2.9278-175.28-0.5323-95.557-1.1964-182.33-1.5957-192.84zm-118.18 32.34 3.7266 0.79883c1.9963 0.53235 4.1256 1.3306 4.791 1.9961 0.66543 0.53234 1.3318 8.1188 1.4648 16.77 0.66544 29.412 0.79824 209.75 0.13281 210.28-0.26618 0.26617-2.6625-0.40014-5.3242-1.4648l-4.791-1.9961v-113.26zm-361.07 4.125c0.79852-0.13308 1.8644 2.6628 2.2637 6.123 0.39926 3.5934 1.0636 11.711 1.4629 18.365 0.39926 6.5213 1.3304 21.427 2.1289 33.006 1.597 23.423 1.3301 24.887-6.2559 24.887-3.9926 0-4.5243-0.398-5.0566-4.3906-1.3309-7.8522-5.9877-73.332-5.3223-74.396 0.66544-0.93161 7.5852-3.3276 10.779-3.5938zm-221.28 13.602c0.14815-0.0188 0.26837 0.0159 0.35156 0.10742 0.39926 0.26617 1.7297 12.111 3.0606 26.352 1.464 14.107 4.3921 43.652 6.5215 65.611 2.2625 21.959 4.125 40.592 4.125 41.391 0 1.597-10.248 6.6545-11.312 5.5898-0.66544-0.66544-13.975-118.45-13.975-123.77 0-2.9945 9.0061-14.997 11.229-15.279zm515.4 38.17h3.0606c1.597 0 4.6558 1.0659 6.7852 2.2637l3.8613 2.2617 0.13281 28.748c0.1331 15.704 0.39844 33.271 0.39844 38.994 0.26618 11.978-1.198 13.974-8.3848 11.445l-4.125-1.4648v-11.445c0-6.3882-0.3993-24.888-0.93165-41.258zm-459.99 3.2441c0.63366-0.0648 0.96547 0.50076 1.373 1.5488 0.53234 1.3309 2.7942 23.422 5.0566 49.107 2.3956 25.553 6.2526 68.674 8.7812 95.824l4.5254 49.242-5.1894 5.1895-5.0566 5.1894-0.93164-10.514c-0.53235-5.8558-3.1954-33.006-5.9902-60.422-2.7948-27.416-6.7869-67.208-8.7832-88.369l-3.7266-38.33 5.1894-4.7891c2.6202-2.4704 3.9372-3.5944 4.752-3.6777zm-99.205 18.279c0.0383-3.6e-4 0.0708 0.0122 0.0957 0.0371 0.26617 0.39927 2.9276 22.092 5.8555 48.443 2.9279 26.218 10.648 95.956 17.303 154.91 6.6544 58.958 12.908 115.79 14.105 126.43 1.0647 10.647 2.9294 26.751 3.9941 35.934 1.8632 15.571 1.8618 16.637-0.26758 18.234-3.1941 2.3956-4.5254 2.1269-4.5254-0.66797 0-1.1978-1.1962-11.311-2.6602-22.225-2.3956-18.233-6.3898-49.111-15.307-118.45-1.8632-13.974-5.4557-41.789-7.9844-61.885-2.6618-20.096-6.521-50.04-8.6504-66.543-2.1294-16.503-5.7238-44.718-7.9863-62.951-2.3956-18.1-3.8582-34.203-3.459-35.934 0.9025-3.4811 8.2989-15.331 9.4863-15.342zm-39.432 76.961c0.53236 0 2.5288 13.043 4.6582 28.881 1.9963 15.97 5.7233 45.115 8.252 64.945 2.5287 19.697 5.7216 44.321 7.1856 54.568l2.5293 18.631-2.7949 2.3965c-1.597 1.3309-3.1942 1.8605-3.7266 1.3281-0.53236-0.53234-1.596-5.8531-2.3945-11.709-0.79853-5.8558-5.7234-40.061-11.047-75.861l-9.4512-65.213 3.0644-9.0488c1.597-4.9242 3.3254-8.918 3.7246-8.918zm724.79 9.3164h4.2598c2.2625 0 5.1892 0.93112 6.2539 2.1289 1.8632 1.8632 2.1309 10.116 2.1309 71.203v69.07h-3.7266c-8.1183 0-7.9852 1.9979-8.5176-73.596zm123.11 27.949c0.6655 0 3.7245 0.93112 6.6524 2.1289 4.7911 1.9963 5.3242 2.5278 5.3242 7.0527 0.2662 36.333-0.5299 119.38-1.1953 122.84-0.1332 1.1978-7.0545 1.3303-9.9824 0.26562-1.8633-0.66543-2.1309-7.8514-2.1309-66.543 0-42.056 0.5335-65.746 1.332-65.746zm-552.74 13.381c20.005 0 33.479 16.505 52.025 31.506-22.899 8.8858-45.868 57.144-26.742 76.311-0.58852-33.62 11.071-65.532 35.652-77.551 11.493-5.6194 14.332-10.457 36.461 2.1641 15.222 8.869 50.245 15.067 63.314 25.881 12.631 10.451 5.0499 31.943 11.096 30.752 3.9487-0.77793 4.6038-19.576-2.3066-29.893-11.039-16.48-66.582-29.803-67.871-29.6 2e-3 -0.20492 0.2058-4.542 13.74-5.1758 6.5114-0.30493 19.72 7.2929 29.16 3.3848 2.5309-1.0478-23.767-6.1751-17.924-9.1387 3.8935-1.9746 6.9593-2.5789 10.498-2.666 23.171-0.57022 55.925 18.094 60.566 22.758 11.953 12.011 7.2775 32.158 15.088 29.645 4.6494-1.4962 0.60356-21.459-6.5644-28.719-13.197-13.365-38.317-25.729-58.139-27.535 4.1186-3.6048 16.357-8.3848 22.404-6.7559 6.0476 1.6289 41.049 16.232 41.049 16.232s61.835-26.389 98.645 0.15429c36.809 26.543 50.36 74.815 55.332 106.34 4.9716 31.528-6.3438 81.889-6.3438 81.889-12.114 58.644-25.031 111.09-23.85 170.17 1.1812 59.076 53.733 147.1 87.975 172.08-17.051 15.809-40.233 27.778-58.93 32.717-39.101-33.342-60.276-81.21-79.582-148.05-16.584-63.141-11.552-122.87 0.62109-181.47 8.7511-39.846 16.988-70.95 18.334-101.44 1.3457-30.491-6.8864-70.714-25.127-77.061-18.24-6.3466-35.715-1.3675-48.805 8.1738-1.61 21.579-9.3409 27.684-17.559 30.297-2.8581 0.90887 1.8586-18.141-1.2754-17.479-6.9862 1.4773-2.6912 23.647-13.758 26.949-7.1466 2.1326-3.1744-18.672-3.0977-43.213 0.14801-47.3-24.998-46.748-30.662-42.992-2.1229 1.4078 19.527 4.0255 21.953 20.016 12.686 83.593-6.4025 76.709-9.3223 77.293-4.6405 0.92828-2.6609-19.004-3.7109-18.744-6.9947 1.7288 1.5628 32.621-16.121 34.336-2.7395 0.26562 3.1595-71.38-3.5449-84.072-6.8631-12.992-28.453-19.703-29.949-18.9-2.5005 1.342 17.053 14.343 22.047 20.328 4.9939 5.9853 6.5292 57.273 3.4316 80.414-0.72922 5.4479 1.6369 9.8442-7.3066 16.178-12.493 8.8474-47.008 31.277-47.008 31.277-26.017-1.8159-41.83 11.533-48.752 15.047-6.9215 3.5143-21.067 5.7838-20.943-3.9883l-99.889 48.402-16.205-5.5176 0.0742-12.924-4.6758-1.6856-0.0859 13.111-4.0898-1.4238-0.15625-13.25-4.582-1.6523 0.11719 13.348-4.0195-1.375-0.11523-13.422-4.502-1.6211-0.0137 13.459-3.4805-1.1914 0.0117-13.525-4.9492-1.7832-0.082 13.594-3.2852-1.1387 0.11914-13.627-4.9688-1.793-0.0254 13.766-2.9258-1-0.11133-13.869-5.2656-1.8984-0.0215 13.922-2.8809-0.99805 0.0801-13.941-5.1406-1.8535 0.0586 14.098-3.5449-1.2129 0.0449-14.127-4.0938-1.4297 2e-3 14.268-15.406-5.3438-2.2402-59.297 132.93-72.289c-3.5623-35.409 11.35-87.49 39.123-92.623zm-5.7734 54c-8.239 0.30279-19.051 13.979-22.693 29.693-3.8849 16.762 13.288 1.8791 22.109 4.3828 8.8211 2.5038 11.067 13.439 14.928 5.666 3.8605-7.7732-0.91029-37.317-12.734-39.621-0.52352-0.10203-1.0601-0.14128-1.6094-0.12109zm617.07 5.8184c0.7985 0 3.5941 0.9314 6.2558 1.9961l4.7911 1.9961-0.9297 110.19c-1.0648 140.41-1.1985 144.53-6.2559 156.64-8.2514 19.83-7.8532 23.824-7.0547-63.215 0.2662-43.52 0.9311-87.571 1.1973-97.818 0.2662-10.248 0.5349-39.13 0.668-64.283 0-30.344 0.3965-45.514 1.3281-45.514zm-551.97 14.617c-10.212 0.55207-21.752 16.724-23.076 29.381-1.114 10.648 9.6895 0.91306 17.447 6.2148 6.6356 4.5348 16.246 18.634 17.955 6.3457 1.713-12.316 4.5436-33.315-6.8633-40.52-1.7266-1.0905-3.5718-1.5241-5.4629-1.4219zm-244 8.7656c0.10814-7e-3 0.18837 6e-3 0.23828 0.0391 0.39926 0.26618 1.1984 5.5889 1.5976 11.711 0.79853 10.78 0.53142 11.846-3.3281 20.363l-4.2578 9.0488-1.5977-13.309c-2.5287-21.294-2.528-22.226 2.5293-25.42 1.9797-1.3974 4.0614-2.3863 4.8184-2.4336zm-83.404 84.533c1.584 0.11509 2.3517 2.3449 2.9922 7.4688 1.1978 10.913 10.514 83.313 15.305 118.85 7.1867 54.965 7.7195 62.817 4.5254 59.49-0.39927-0.39926-3.4602-18.897-6.6543-41.123-20.762-143.47-20.629-142.54-18.898-143.6 1.1229-0.74862 2.0104-1.1324 2.7305-1.0801zm88.699 55.113 4.6582 5.3242c2.6618 2.9279 5.0578 6.5224 5.457 7.9863 0.79853 3.3272 4.6602 39.393 4.6602 43.785 0 3.7264-4.7925 7.186-6.9219 5.0566-0.66544-0.66543-2.3957-11.977-3.7266-25.02-1.464-13.176-2.9269-26.883-3.3262-30.477zm112.33 61.887c1.7301 0 3.9936 0.79913 5.1914 1.5977 1.464 1.3309 2.396 6.6539 3.5938 21.027 1.9963 25.952 2.2613 23.957-3.1953 23.957-5.5897 0-5.4551 0.398-7.3184-23.025-1.8632-23.823-1.8648-23.557 1.7285-23.557zm106.51 1.2578c1.6605-0.0311 3.6304 0.96348 4.0879 2.3359 0.26617 1.3309 0.93054 9.3167 1.4629 17.701 0.39926 8.3845 1.5974 27.282 2.6621 41.922 3.7264 53.767 3.8582 60.555 1.5957 60.555-2.5287 0-2.7928-1.9978-5.7207-39.928-1.0647-15.704-3.0617-40.458-4.3926-54.965-1.1978-14.507-1.9969-26.617-1.5977-26.883 0.45749-0.49908 1.1476-0.72415 1.9024-0.73829zm-248.13 26.662c0.75641-3e-3 1.5166 0.37813 2.0156 1.2266 0.79852 1.1978 5.8582 43.786 12.113 101.95 1.8632 17.568 3.7257 34.468 4.125 37.662l0.66406 5.7246-3.3262-2.1289c-2.5287-1.7301-3.459-3.4606-3.459-6.5215 0-8.3846-5.7253-63.618-10.117-97.422-2.5287-19.165-4.5234-36.065-4.5234-37.662 0-1.7468 1.2471-2.819 2.5078-2.8242zm770.06 1.3594c0.3993 0 0.3993 25.019 0 55.496l-0.9336 55.633-3.3242 4.9238c-7.586 11.179-7.1883 13.308-6.789-48.977l0.2675-57.094 4.9239-5.0586c2.6616-2.6617 5.3231-4.9238 5.8554-4.9238zm-126.68 60.129c0.30152-0.0146 0.61071-6e-3 0.91016 0.0273 1.7301 0.39926 2.1298 9.8474 2.6621 83.578 0.66544 77.324 0.53174 83.314-1.5977 85.709-1.3309 1.464-2.5285 2.3954-2.9277 1.9961-0.93161-1.0647-2.2639-169.69-1.1992-170.62 0.39926-0.39926 1.2478-0.64774 2.1523-0.6914zm-440.01 23.717h4.125c3.8595 0 4.1256 0.26556 4.791 6.9199 0.93161 8.2514 4.259 47.778 5.5898 66.41 0.79852 12.51 0.79902 12.91-2.1289 13.842-1.597 0.5324-3.4598 0.3979-3.9922-0.2675-0.93161-0.9316-3.8598-30.476-7.4531-75.992zm-99.684 51.904c1.3309 0 3.0606 0.66413 3.9922 1.5957 0.93161 0.9316 1.5977 4.2588 1.5977 7.5859 0 3.4603 1.598 21.428 3.3281 40.061 5.0573 50.972 5.4558 57.891 3.1934 56.56-3.4603-1.9963-6.5209-5.0569-5.8555-5.8555 0.26618-0.5323-0.26733-7.1855-1.332-14.771-0.93161-7.7191-2.1278-20.23-2.6602-27.949-0.53235-7.719-1.7302-21.826-2.7949-31.275-2.5286-23.29-2.3967-25.951 0.53125-25.951zm59.455 85.262c0.18393-0.012 0.38236-0.01 0.59571 0 0.48763 0.027 1.0543 0.1013 1.7031 0.168 3.8595 0.3993 4.3909 0.9315 5.1894 5.7227 0.39927 2.9279 1.1981 13.84 1.7305 24.221 0.93161 19.963 0.53276 21.428-4.9238 17.303-1.597-1.1978-2.6627-6.2558-4.2598-21.428-2.2926-22.49-2.794-25.813-0.0352-25.988z" stroke-width=".13309"/>
	</g>
</svg>
